erDiagram
    direction LR
    User_Story
    User_Story_Metadata
    User_Story_Commit
    Git_Org_Commit
    Git_Backup
    Git_Repository
    Org
    JobExecution
    Org |o..o{ User_Story : "Org_Credential"
    User_Story ||--o{ User_Story_Commit : "User_Story"
    Git_Org_Commit ||--o{ User_Story_Commit : "Snapshot_Commit"
    User_Story ||--o{ User_Story_Metadata : "User_Story"
    Org ||--o{ Git_Org_Commit : "Org"
    Git_Backup |o..o{ Git_Org_Commit : "Git_Backup"
    Git_Repository ||--o{ Git_Backup : "Git_Repository"
    Org ||--o{ Git_Backup : "Org"
    Org |o..o{ Org : "Developer_Hub_Org"
    Git_Backup |o..o{ JobExecution : "Snapshot"
    User_Story_Commit |o..o{ JobExecution : "UserStoryCommit"
