erDiagram
    direction LR
    Promotion
    Deployment
    User_Story_Commit
    User_Story
    JobExecution
    JobTemplate
    JobStep
    Result
    Function
    Deployment |o..o{ JobExecution : "Deployment"
    Promotion |o..o{ JobExecution : "Promotion"
    JobTemplate |o..o{ JobExecution : "Template"
    User_Story_Commit |o..o{ JobExecution : "UserStoryCommit"
    JobExecution |o..o{ JobStep : "JobExecution"
    JobTemplate |o..o{ JobStep : "JobTemplate"
    Result |o..o{ JobStep : "Result"
    User_Story |o..o{ JobStep : "UserStory"
    Function |o..o{ Result : "Function"
    JobStep |o..o{ Result : "JobStep"
